# xmcd
#
# Track frame offsets: 
#        150
#        14637
#        27630
#        40365
#        53725
#        65210
#        78262
#        86837
#        97205
#        110457
#
# Disc length: 1650 seconds
#
# Revision: 2
# Processed by: cddbd v1.5.2PL0 Copyright (c) Steve Scherf et al.
# Submitted via: ExactAudioCopy v0.99pb3
#
DISCID=8d06700a
DTITLE=Coasters, The - Forever Gold
DYEAR=2000
DGENRE=R&B
TTITLE0=Run Red Run
TTITLE1=What About Us
TTITLE2=Little Egypt
TTITLE3=Poison Ivy
TTITLE4=Charlie Brown
TTITLE5=Down In Mexico
TTITLE6=Yakety Yak
TTITLE7=Young Blood
TTITLE8=Searchin'
TTITLE9=Along Came Jones
EXTD=
EXTT0=
EXTT1=
EXTT2=
EXTT3=
EXTT4=
EXTT5=
EXTT6=
EXTT7=
EXTT8=
EXTT9=
PLAYORDER=
